<mxfile host="65bd71144e" scale="3" border="0">
    <diagram id="0uK4_Wq7wSLKckqOUL7-" name="Page-1">
        <mxGraphModel dx="866" dy="817" grid="1" gridSize="10" guides="1" tooltips="1" connect="1" arrows="1" fold="1" page="1" pageScale="1" pageWidth="1169" pageHeight="827" math="0" shadow="0">
            <root>
                <mxCell id="0"/>
                <mxCell id="1" parent="0"/>
                <mxCell id="4" value="" style="shape=link;html=1;strokeWidth=4;strokeColor=#00FF00;" edge="1" parent="1">
                    <mxGeometry width="100" relative="1" as="geometry">
                        <mxPoint x="290" y="240" as="sourcePoint"/>
                        <mxPoint x="430" y="240" as="targetPoint"/>
                    </mxGeometry>
                </mxCell>
                <mxCell id="5" value="" style="shape=link;html=1;strokeWidth=5;strokeColor=#007FFF;" edge="1" parent="1">
                    <mxGeometry width="100" relative="1" as="geometry">
                        <mxPoint x="290" y="240" as="sourcePoint"/>
                        <mxPoint x="260" y="280" as="targetPoint"/>
                    </mxGeometry>
                </mxCell>
                <mxCell id="7" value="" style="rounded=1;whiteSpace=wrap;html=1;fillColor=#FFCCFF;strokeColor=#36393d;" vertex="1" parent="1">
                    <mxGeometry x="260" y="260" width="40" height="30" as="geometry"/>
                </mxCell>
                <mxCell id="8" value="" style="shape=link;html=1;strokeWidth=4;strokeColor=#FF9933;" edge="1" parent="1">
                    <mxGeometry width="100" relative="1" as="geometry">
                        <mxPoint x="430" y="240" as="sourcePoint"/>
                        <mxPoint x="490" y="240" as="targetPoint"/>
                    </mxGeometry>
                </mxCell>
                <mxCell id="9" value="" style="shape=cylinder3;whiteSpace=wrap;html=1;boundedLbl=1;backgroundOutline=1;size=15;fillColor=#994C00;strokeColor=#36393d;" vertex="1" parent="1">
                    <mxGeometry x="490" y="220" width="40" height="50" as="geometry"/>
                </mxCell>
                <mxCell id="10" value="" style="endArrow=none;dashed=1;html=1;dashPattern=1 3;strokeWidth=6;strokeColor=#000000;" edge="1" parent="1">
                    <mxGeometry width="50" height="50" relative="1" as="geometry">
                        <mxPoint x="400" y="280" as="sourcePoint"/>
                        <mxPoint x="470" y="180" as="targetPoint"/>
                    </mxGeometry>
                </mxCell>
                <mxCell id="11" value="&lt;font color=&quot;#ffccff&quot; style=&quot;font-size: 17px;&quot;&gt;m_link3&lt;/font&gt;" style="text;html=1;strokeColor=none;fillColor=none;align=center;verticalAlign=middle;whiteSpace=wrap;rounded=0;" vertex="1" parent="1">
                    <mxGeometry x="280" y="290" width="60" height="30" as="geometry"/>
                </mxCell>
                <mxCell id="12" value="&lt;font color=&quot;#00ff00&quot; style=&quot;font-size: 17px;&quot;&gt;m_p1&lt;/font&gt;" style="text;html=1;strokeColor=none;fillColor=none;align=center;verticalAlign=middle;whiteSpace=wrap;rounded=0;" vertex="1" parent="1">
                    <mxGeometry x="330" y="200" width="60" height="30" as="geometry"/>
                </mxCell>
                <mxCell id="14" value="&lt;font color=&quot;#3399ff&quot; style=&quot;font-size: 17px;&quot;&gt;m&lt;sub&gt;p2&lt;/sub&gt;&lt;/font&gt;" style="text;html=1;strokeColor=none;fillColor=none;align=center;verticalAlign=middle;whiteSpace=wrap;rounded=0;" vertex="1" parent="1">
                    <mxGeometry x="200" y="230" width="60" height="30" as="geometry"/>
                </mxCell>
                <mxCell id="15" value="&lt;font color=&quot;#ff9933&quot; style=&quot;font-size: 17px;&quot;&gt;m_p3&lt;/font&gt;" style="text;html=1;strokeColor=none;fillColor=none;align=center;verticalAlign=middle;whiteSpace=wrap;rounded=0;" vertex="1" parent="1">
                    <mxGeometry x="420" y="270" width="60" height="30" as="geometry"/>
                </mxCell>
                <mxCell id="16" value="&lt;font color=&quot;#994c00&quot; style=&quot;font-size: 17px;&quot;&gt;m_pitch&lt;/font&gt;" style="text;html=1;strokeColor=none;fillColor=none;align=center;verticalAlign=middle;whiteSpace=wrap;rounded=0;" vertex="1" parent="1">
                    <mxGeometry x="520" y="190" width="60" height="30" as="geometry"/>
                </mxCell>
                <mxCell id="19" value="" style="shape=flexArrow;endArrow=classic;html=1;strokeColor=#000000;strokeWidth=2;fontSize=17;fontColor=#FF9933;" edge="1" parent="1">
                    <mxGeometry width="50" height="50" relative="1" as="geometry">
                        <mxPoint x="259" y="150" as="sourcePoint"/>
                        <mxPoint x="259" y="210" as="targetPoint"/>
                    </mxGeometry>
                </mxCell>
                <mxCell id="20" value="" style="shape=flexArrow;endArrow=classic;html=1;strokeColor=#000000;strokeWidth=2;fontSize=17;fontColor=#FF9933;" edge="1" parent="1">
                    <mxGeometry width="50" height="50" relative="1" as="geometry">
                        <mxPoint x="600" y="210" as="sourcePoint"/>
                        <mxPoint x="600" y="270" as="targetPoint"/>
                    </mxGeometry>
                </mxCell>
                <mxCell id="21" value="l_p3" style="text;html=1;strokeColor=none;fillColor=none;align=center;verticalAlign=middle;whiteSpace=wrap;rounded=0;fontSize=17;fontColor=#FF9933;" vertex="1" parent="1">
                    <mxGeometry x="440" y="200" width="60" height="30" as="geometry"/>
                </mxCell>
                <mxCell id="23" value="&lt;font color=&quot;#00ff00&quot; style=&quot;font-size: 17px;&quot;&gt;l_p1&lt;/font&gt;" style="text;html=1;strokeColor=none;fillColor=none;align=center;verticalAlign=middle;whiteSpace=wrap;rounded=0;" vertex="1" parent="1">
                    <mxGeometry x="350" y="240" width="60" height="30" as="geometry"/>
                </mxCell>
                <mxCell id="24" value="&lt;font color=&quot;#3399ff&quot; style=&quot;font-size: 17px;&quot;&gt;l_p2&lt;/font&gt;" style="text;html=1;strokeColor=none;fillColor=none;align=center;verticalAlign=middle;whiteSpace=wrap;rounded=0;" vertex="1" parent="1">
                    <mxGeometry x="290" y="240" width="40" height="30" as="geometry"/>
                </mxCell>
                <mxCell id="26" value="&lt;font color=&quot;#000000&quot; style=&quot;font-size: 34px;&quot;&gt;&lt;b&gt;Pitch:&lt;/b&gt;&lt;/font&gt;" style="text;html=1;strokeColor=none;fillColor=none;align=center;verticalAlign=middle;whiteSpace=wrap;rounded=0;fontSize=17;fontColor=#994C00;" vertex="1" parent="1">
                    <mxGeometry x="81" y="220" width="99" height="50" as="geometry"/>
                </mxCell>
                <mxCell id="27" value="" style="endArrow=none;dashed=1;html=1;dashPattern=1 3;strokeWidth=6;strokeColor=#000000;" edge="1" parent="1">
                    <mxGeometry width="50" height="50" relative="1" as="geometry">
                        <mxPoint x="400" y="530" as="sourcePoint"/>
                        <mxPoint x="400" y="400" as="targetPoint"/>
                    </mxGeometry>
                </mxCell>
                <mxCell id="28" value="" style="shape=link;html=1;strokeWidth=4;strokeColor=#CCCC00;" edge="1" parent="1">
                    <mxGeometry width="100" relative="1" as="geometry">
                        <mxPoint x="400" y="490" as="sourcePoint"/>
                        <mxPoint x="440" y="440" as="targetPoint"/>
                    </mxGeometry>
                </mxCell>
                <mxCell id="29" value="" style="shape=link;html=1;strokeWidth=4;strokeColor=#CCCCFF;" edge="1" parent="1">
                    <mxGeometry width="100" relative="1" as="geometry">
                        <mxPoint x="440" y="444" as="sourcePoint"/>
                        <mxPoint x="440" y="384" as="targetPoint"/>
                    </mxGeometry>
                </mxCell>
                <mxCell id="31" value="" style="rounded=1;whiteSpace=wrap;html=1;fontSize=17;fontColor=#994C00;fillColor=#FF9999;" vertex="1" parent="1">
                    <mxGeometry x="400" y="360" width="90" height="40" as="geometry"/>
                </mxCell>
                <mxCell id="32" value="" style="shape=link;html=1;strokeWidth=4;strokeColor=#663300;startArrow=none;" edge="1" parent="1">
                    <mxGeometry width="100" relative="1" as="geometry">
                        <mxPoint x="370" y="530" as="sourcePoint"/>
                        <mxPoint x="400" y="490" as="targetPoint"/>
                    </mxGeometry>
                </mxCell>
                <mxCell id="33" value="" style="shape=link;html=1;strokeWidth=4;strokeColor=#663300;endArrow=none;" edge="1" parent="1" target="30">
                    <mxGeometry width="100" relative="1" as="geometry">
                        <mxPoint x="360" y="540" as="sourcePoint"/>
                        <mxPoint x="400" y="490" as="targetPoint"/>
                    </mxGeometry>
                </mxCell>
                <mxCell id="30" value="" style="shape=cylinder3;whiteSpace=wrap;html=1;boundedLbl=1;backgroundOutline=1;size=15;fillColor=#990099;strokeColor=#36393d;" vertex="1" parent="1">
                    <mxGeometry x="340" y="520" width="40" height="50" as="geometry"/>
                </mxCell>
                <mxCell id="34" value="&lt;font color=&quot;#990099&quot; style=&quot;font-size: 17px;&quot;&gt;m_yaw&lt;/font&gt;" style="text;html=1;strokeColor=none;fillColor=none;align=center;verticalAlign=middle;whiteSpace=wrap;rounded=0;" vertex="1" parent="1">
                    <mxGeometry x="270" y="530" width="60" height="30" as="geometry"/>
                </mxCell>
                <mxCell id="35" value="&lt;font color=&quot;#ff9999&quot; style=&quot;font-size: 17px;&quot;&gt;m_all&lt;/font&gt;" style="text;html=1;strokeColor=none;fillColor=none;align=center;verticalAlign=middle;whiteSpace=wrap;rounded=0;" vertex="1" parent="1">
                    <mxGeometry x="330" y="365" width="60" height="30" as="geometry"/>
                </mxCell>
                <mxCell id="36" value="&lt;font color=&quot;#000000&quot; style=&quot;font-size: 34px;&quot;&gt;&lt;b&gt;Yaw:&lt;/b&gt;&lt;/font&gt;" style="text;html=1;strokeColor=none;fillColor=none;align=center;verticalAlign=middle;whiteSpace=wrap;rounded=0;fontSize=17;fontColor=#994C00;" vertex="1" parent="1">
                    <mxGeometry x="81" y="430" width="99" height="50" as="geometry"/>
                </mxCell>
                <mxCell id="37" value="" style="shape=flexArrow;endArrow=classic;html=1;strokeColor=#000000;strokeWidth=2;fontSize=17;fontColor=#FF9933;" edge="1" parent="1">
                    <mxGeometry width="50" height="50" relative="1" as="geometry">
                        <mxPoint x="520" y="360" as="sourcePoint"/>
                        <mxPoint x="520" y="429.5" as="targetPoint"/>
                    </mxGeometry>
                </mxCell>
                <mxCell id="39" value="" style="shape=flexArrow;endArrow=classic;html=1;strokeColor=#000000;strokeWidth=2;fontSize=17;fontColor=#FF9933;" edge="1" parent="1">
                    <mxGeometry width="50" height="50" relative="1" as="geometry">
                        <mxPoint x="444.5" y="520" as="sourcePoint"/>
                        <mxPoint x="444.5" y="589.5" as="targetPoint"/>
                    </mxGeometry>
                </mxCell>
            </root>
        </mxGraphModel>
    </diagram>
</mxfile>